<?xml version="1.0" ?><!DOCTYPE svg  PUBLIC '-//W3C//DTD SVG 1.1//EN'  'http://www.w3.org/Graphics/SVG/1.1/DTD/svg11.dtd'><svg height="100%" style="fill-rule:evenodd;clip-rule:evenodd;stroke-linejoin:round;stroke-miterlimit:2;" version="1.1" viewBox="0 0 129 129" width="100%" xml:space="preserve" xmlns="http://www.w3.org/2000/svg" xmlns:serif="http://www.serif.com/" xmlns:xlink="http://www.w3.org/1999/xlink"><g transform="matrix(1,0,0,1,-473,-169)"><g id="brush-paint" transform="matrix(1,0,0,1,473.126,169.583)"><rect height="128" style="fill:none;" width="128" x="0" y="0"/><g><g transform="matrix(1,0,0,1,-3600.97,-2791.25)"><path d="M3698.78,2814.86C3709.2,2804.48 3720.65,2799.09 3724.37,2802.81C3728.11,2806.55 3722.66,2818.08 3712.21,2828.53L3685.14,2855.6L3671.59,2842.04L3698.78,2814.86ZM3711.76,2815.42C3713.05,2816.7 3713.05,2818.79 3711.76,2820.07C3710.48,2821.36 3708.39,2821.36 3707.11,2820.07C3705.83,2818.79 3705.83,2816.7 3707.11,2815.42C3708.39,2814.14 3710.48,2814.14 3711.76,2815.42Z" style="fill:rgb(244,49,49);"/></g><g transform="matrix(1,0,0,1,-3600.97,-2791.25)"><path d="M3682.11,2852.56L3709.17,2825.49C3718.17,2816.5 3723.46,2806.71 3722.38,2801.77C3723.18,2801.95 3723.85,2802.29 3724.37,2802.81C3728.11,2806.55 3722.66,2818.08 3712.21,2828.53L3685.14,2855.6L3682.11,2852.56Z" style="fill:rgb(183,37,37);"/></g><g transform="matrix(1,0,0,1,-3600.97,-2791.25)"><path d="M3676.41,2846.86L3671.59,2842.04L3698.78,2814.86C3709.2,2804.48 3720.65,2799.09 3724.37,2802.81C3725.22,2803.66 3725.6,2804.91 3725.55,2806.46C3721.56,2806.58 3715.6,2809.53 3709.43,2814.46C3708.59,2814.46 3707.75,2814.78 3707.11,2815.42C3706.61,2815.93 3706.3,2816.56 3706.19,2817.21C3705.32,2818 3704.46,2818.82 3703.6,2819.68L3676.41,2846.86Z" style="fill:rgb(247,101,101);"/></g><g transform="matrix(1,0,0,1,-4492.55,-2782.21)"><path d="M4495.97,2847.85L4547.94,2899.83C4547.94,2899.83 4552.88,2899.01 4557.38,2898.27C4562.09,2897.49 4566.43,2895.26 4569.81,2891.88C4572.24,2889.45 4574.61,2887.08 4574.61,2887.08L4522.63,2835.1C4522.63,2835.1 4520.26,2837.47 4517.83,2839.9C4514.46,2843.28 4510.11,2845.51 4505.4,2846.29C4500.9,2847.03 4495.97,2847.85 4495.97,2847.85Z" style="fill:rgb(244,187,49);"/></g><g transform="matrix(1,0,0,1,-3600.97,-2791.25)"><path d="M3652.36,2904.87L3656.37,2908.88C3656.37,2908.88 3661.3,2908.06 3665.8,2907.32C3670.51,2906.54 3674.86,2904.3 3678.23,2900.93C3680.66,2898.5 3683.03,2896.13 3683.03,2896.13L3679.02,2892.12C3679.02,2892.12 3676.65,2894.49 3674.22,2896.92C3670.85,2900.29 3666.5,2902.53 3661.79,2903.31L3652.36,2904.87Z" style="fill:rgb(183,140,37);"/></g><g transform="matrix(1,0,0,1,-3600.97,-2791.25)"><path d="M3604.39,2856.9L3609.38,2861.88C3609.38,2861.88 3614.31,2861.07 3618.81,2860.32C3623.52,2859.54 3627.87,2857.31 3631.24,2853.94C3633.67,2851.51 3636.04,2849.14 3636.04,2849.14L3631.06,2844.15C3631.06,2844.15 3628.69,2846.52 3626.26,2848.95C3622.88,2852.33 3618.53,2854.56 3613.83,2855.34C3609.33,2856.08 3604.39,2856.9 3604.39,2856.9Z" style="fill:rgb(247,204,101);"/></g><g transform="matrix(1,0,0,1,-473.126,-1344.09)"><path d="M543.745,1394.88L564.082,1374.55L577.49,1388.24L557.295,1408.43L566.609,1417.75C572.077,1423.22 572.077,1432.08 566.609,1437.55C561.038,1443.12 555.188,1448.97 555.188,1448.97L503.21,1396.99C503.21,1396.99 509.06,1391.14 514.632,1385.57C520.099,1380.1 528.963,1380.1 534.431,1385.57L543.745,1394.88Z" style="fill:rgb(247,208,112);"/></g><g transform="matrix(1,0,0,1,-3600.97,-2791.25)"><path d="M3700.87,2830.93L3705.34,2835.4L3685.14,2855.6L3694.45,2864.91C3699.92,2870.38 3699.92,2879.24 3694.45,2884.71C3688.88,2890.28 3683.03,2896.13 3683.03,2896.13L3678.57,2891.66C3678.57,2891.66 3684.42,2885.81 3689.99,2880.24C3695.46,2874.78 3695.46,2865.91 3689.99,2860.44L3680.67,2851.13L3700.87,2830.93Z" style="fill:rgb(185,156,84);"/></g><g transform="matrix(1,0,0,1,-3600.97,-2791.25)"><path d="M3635.66,2848.76L3631.06,2844.15C3631.06,2844.15 3636.91,2838.3 3642.48,2832.73C3647.94,2827.26 3656.81,2827.26 3662.28,2832.73L3666.88,2837.33C3661.41,2831.87 3652.55,2831.87 3647.08,2837.33C3641.51,2842.91 3635.66,2848.76 3635.66,2848.76ZM3696.48,2826.36L3676.19,2846.65L3671.59,2842.04L3691.93,2821.71L3696.48,2826.36Z" style="fill:rgb(249,220,148);"/></g><g transform="matrix(0.440431,0.440431,-0.0934103,0.0934103,-1524.71,-1406.44)"><rect height="114.125" style="fill:rgb(158,158,158);" width="118.016" x="3421.8" y="-625.109"/></g><g transform="matrix(1,0,0,1,-4492.55,-2782.21)"><path d="M4585.27,2876.42L4533.29,2824.44L4517.72,2840.01L4569.7,2891.99L4585.27,2876.42Z" style="fill:rgb(183,140,37);"/></g><g transform="matrix(1,0,0,1,-4492.55,-2782.21)"><path d="M4585.27,2876.42L4533.29,2824.44L4522.63,2835.1L4574.61,2887.08L4585.27,2876.42Z" style="fill:rgb(158,158,158);"/></g><g transform="matrix(1,0,0,1,-3600.97,-2791.25)"><path d="M3693.69,2885.47L3683.31,2875.08L3672.65,2885.74L3683.03,2896.13L3693.69,2885.47Z" style="fill:rgb(118,118,118);"/></g><g transform="matrix(0.440431,0.440431,-0.0934103,0.0934103,-1524.71,-1406.44)"><rect height="114.125" style="fill:rgb(182,182,182);" width="24.205" x="3421.8" y="-625.109"/></g><g transform="matrix(1,0,0,1,-4492.55,-2782.21)"><path d="M4543.95,2835.1L4533.29,2824.44L4522.63,2835.1L4533.29,2845.76L4543.95,2835.1Z" style="fill:rgb(182,182,182);"/></g><g transform="matrix(1,0,0,1,-4492.55,-2782.21)"><path d="M4545.8,2844.76L4537.46,2836.43C4536.68,2835.64 4535.42,2835.64 4534.64,2836.43C4533.86,2837.21 4533.86,2838.47 4534.64,2839.25L4542.97,2847.59C4543.75,2848.37 4545.02,2848.37 4545.8,2847.59C4546.58,2846.81 4546.58,2845.54 4545.8,2844.76ZM4529.3,2828.44L4526.65,2831.09L4527.01,2831.62L4530.15,2834.76C4530.93,2835.55 4532.19,2835.55 4532.97,2834.76C4533.75,2833.98 4533.75,2832.72 4532.97,2831.94L4529.83,2828.8L4529.3,2828.44Z" style="fill:rgb(118,118,118);"/></g><g transform="matrix(1,0,0,1,-3600.97,-2791.25)"><path d="M3618.14,2870.65L3621.62,2874.13L3627.83,2873.1C3628.92,2872.92 3629.65,2871.89 3629.47,2870.8C3629.29,2869.72 3628.26,2868.98 3627.18,2869.16L3618.14,2870.65Z" style="fill:rgb(183,140,37);"/></g><g transform="matrix(1,0,0,1,-3600.97,-2791.25)"><path d="M3636.18,2888.68L3639.66,2892.16L3645.86,2891.14C3648.31,2890.73 3650.68,2889.96 3652.88,2888.87C3653.87,2888.38 3654.27,2887.17 3653.78,2886.18C3653.29,2885.2 3652.08,2884.79 3651.1,2885.29C3649.25,2886.2 3647.27,2886.85 3645.21,2887.19L3636.18,2888.68Z" style="fill:rgb(183,140,37);"/></g></g></g></g></svg>