<?xml version="1.0" ?><!DOCTYPE svg  PUBLIC '-//W3C//DTD SVG 1.1//EN'  'http://www.w3.org/Graphics/SVG/1.1/DTD/svg11.dtd'><svg enable-background="new 0 0 512 512" height="512px" id="Credit_x5F_Cards" version="1.1" viewBox="0 0 512 512" width="512px" xml:space="preserve" xmlns="http://www.w3.org/2000/svg" xmlns:xlink="http://www.w3.org/1999/xlink"><path d="M449.972,402.198L49.137,352.01c-11.646-1.458-19.904-12.081-18.446-23.728L59.021,102.01  c1.458-11.646,12.081-19.905,23.728-18.447l400.835,50.188c11.646,1.458,19.904,12.082,18.446,23.728l-28.331,226.272  C472.241,395.397,461.618,403.656,449.972,402.198z" fill="#3F5EAB"/><linearGradient gradientUnits="userSpaceOnUse" id="SVGID_1_" x1="60.1494" x2="406.2057" y1="466.3604" y2="120.3041"><stop offset="0" style="stop-color:#00FFFF"/><stop offset="1" style="stop-color:#FF7BAC"/></linearGradient><path d="M435.159,428.604H31.195c-11.737,0-21.252-9.516-21.252-21.252v-228.04  c0-11.737,9.515-21.251,21.252-21.251h403.964c11.737,0,21.252,9.515,21.252,21.251v228.04  C456.411,419.088,446.896,428.604,435.159,428.604z" fill="url(#SVGID_1_)"/><path d="M172.403,360.501c12.869,0,12.891-20,0-20c-34.903,0-114.793,0-119.834,0c-12.869,0-12.89,20,0,20  C52.569,360.501,167.362,360.501,172.403,360.501z" fill="#FFFFFF"/><path d="M207.07,360.501c8.197,0,16.395,0,24.592,0c12.869,0,12.891-20,0-20c-8.197,0-16.395,0-24.592,0  C194.201,340.501,194.18,360.501,207.07,360.501L207.07,360.501z" fill="#FFFFFF"/><linearGradient gradientUnits="userSpaceOnUse" id="SVGID_2_" x1="287.9316" x2="362.6396" y1="354.0557" y2="354.0557"><stop offset="0" style="stop-color:#B3B3B3"/><stop offset="0.0161" style="stop-color:#B7B7B7"/><stop offset="0.152" style="stop-color:#D1D1D1"/><stop offset="0.3016" style="stop-color:#E5E5E5"/><stop offset="0.4698" style="stop-color:#F4F4F4"/><stop offset="0.6721" style="stop-color:#FCFCFC"/><stop offset="1" style="stop-color:#FFFFFF"/></linearGradient><circle cx="325.286" cy="354.056" fill="url(#SVGID_2_)" r="37.354"/><circle cx="385.619" cy="354.056" fill="#3F5EAB" r="37.354"/><path d="M9.943,249.209c14.844,0,444.285,0.621,445.717,0c0.177-0.077,0.546,0,0.751,0c0.184,0,0.19-25,0-25  c-14.843,0-444.284-0.621-445.716,0c-0.178,0.077-0.547,0-0.752,0C9.76,224.209,9.753,249.209,9.943,249.209L9.943,249.209z" fill="#FFFFFF"/></svg>