<?xml version="1.0" ?><svg height="45px" version="1.1" viewBox="0 0 60 45" width="60px" xmlns="http://www.w3.org/2000/svg" xmlns:xlink="http://www.w3.org/1999/xlink"><title/><desc/><g fill="none" fill-rule="evenodd" id="Page-1" stroke="none" stroke-width="1"><g id="002---Laptop"><path d="M6,1 L54,1 C55.1045695,1 56,1.8954305 56,3 L56,36 L4,36 L4,3 C4,1.8954305 4.8954305,1 6,1 Z" fill="#00E6FF" id="Path"/><path d="M55,36 L55,3 C55,2.44771525 54.5522847,2 54,2 L6,2 C5.44771525,2 5,2.44771525 5,3 L5,36 L3,36 L3,3 C3,1.34314575 4.34314575,0 6,0 L54,0 C55.6568542,0 57,1.34314575 57,3 L57,36 L55,36 Z" fill="#76523A" id="Path"/><path d="M2,36 L58,36 C58.5522847,36 59,36.4477153 59,37 L59,40 C59,42.209139 57.209139,44 55,44 L5,44 C2.790861,44 1,42.209139 1,40 L1,37 C1,36.4477153 1.44771525,36 2,36 Z" fill="#634531" id="Path"/><path d="M7,41 L5,41 C4.44771525,41 4,40.5522847 4,40 C4,39.4477153 4.44771525,39 5,39 L7,39 C7.55228475,39 8,39.4477153 8,40 C8,40.5522847 7.55228475,41 7,41 Z" fill="#FFFFFF" id="Path"/><path d="M24,41 L11,41 C10.4477153,41 10,40.5522847 10,40 C10,39.4477153 10.4477153,39 11,39 L24,39 C24.5522847,39 25,39.4477153 25,40 C25,40.5522847 24.5522847,41 24,41 Z" fill="#FFFFFF" id="Path"/><path d="M8,9 C7.44771525,9 7,8.55228475 7,8 L7,6 C7,5.44771525 7.44771525,5 8,5 C8.55228475,5 9,5.44771525 9,6 L9,8 C9,8.55228475 8.55228475,9 8,9 Z" fill="#FFFFFF" id="Path"/><path d="M8,32 C7.44771525,32 7,31.5522847 7,31 L7,13 C7,12.4477153 7.44771525,12 8,12 C8.55228475,12 9,12.4477153 9,13 L9,31 C9,31.5522847 8.55228475,32 8,32 Z" fill="#FFFFFF" id="Path"/><path d="M59,35 L57,35 L57,3 C57,1.34314575 55.6568542,0 54,0 L6,0 C4.34314575,0 3,1.34314575 3,3 L3,35 L1,35 C0.44771525,35 6.76353751e-17,35.4477153 0,36 L0,40 C0.00330611633,42.7600532 2.23994685,44.9966939 5,45 L55,45 C57.7600532,44.9966939 59.9966939,42.7600532 60,40 L60,36 C60,35.4477153 59.5522847,35 59,35 Z M5,3 C5,2.44771525 5.44771525,2 6,2 L54,2 C54.5522847,2 55,2.44771525 55,3 L55,35 L5,35 L5,3 Z M58,40 C58,41.6568542 56.6568542,43 55,43 L5,43 C3.34314575,43 2,41.6568542 2,40 L2,37 L58,37 L58,40 Z" fill="#000000" fill-rule="nonzero" id="Shape"/></g></g></svg>