<?xml version="1.0" ?><!DOCTYPE svg  PUBLIC '-//W3C//DTD SVG 1.1//EN'  'http://www.w3.org/Graphics/SVG/1.1/DTD/svg11.dtd'><svg enable-background="new 0 0 75 75" height="75px" id="Layer_1" version="1.1" viewBox="0 0 75 75" width="75px" xml:space="preserve" xmlns="http://www.w3.org/2000/svg" xmlns:xlink="http://www.w3.org/1999/xlink"><g><path d="M45.25,29.751l-2.551-0.793L7.252,62.619c-1.416,1.418-1.416,3.713,0,5.129   c1.418,1.418,3.713,1.418,5.131,0l33.658-35.445L45.25,29.751z" fill="#29537A"/><path d="M7.252,62.619c-0.234,0.236-0.416,0.5-0.572,0.775c0.156,0.275,0.338,0.541,0.572,0.775   c1.418,1.416,3.713,1.416,5.131,0l32.725-34.463l-2.408-0.748L7.252,62.619z" fill="#427093"/><polygon fill="#093260" points="42.699,28.958 35.934,35.382 38.744,36.255 39.619,39.066 46.041,32.302 45.25,29.751  "/><path d="M68.535,30.417c0.438-0.855,0.348-1.885-0.225-2.656l-5.279-7.07l2.834-8.355   c0.617-1.82-1.379-3.816-3.199-3.201l-8.357,2.836l-7.072-5.281c-0.77-0.572-1.799-0.662-2.652-0.225   c-0.857,0.438-1.389,1.32-1.377,2.281l0.111,8.822l-7.203,5.096c-0.783,0.553-1.186,1.508-1.035,2.455   c0.15,0.949,0.824,1.729,1.742,2.014l8.428,2.619l2.617,8.428c0.127,0.398,0.344,0.75,0.627,1.033   c0.369,0.369,0.852,0.621,1.389,0.709c0.945,0.15,1.9-0.254,2.453-1.035l5.096-7.205l8.824,0.113   C67.217,31.806,68.098,31.275,68.535,30.417z" fill="#ED9015"/><path d="M62.666,9.134l-8.357,2.836l-7.072-5.281c-0.77-0.572-1.799-0.662-2.652-0.225   c-0.857,0.438-1.389,1.32-1.377,2.281l0.111,8.822l-7.203,5.096c-0.783,0.553-1.186,1.508-1.035,2.455   c0.15,0.949,0.824,1.729,1.742,2.014l8.428,2.619l19.93-19.93C64.529,9.171,63.574,8.826,62.666,9.134z" fill="#EAB818"/><path d="M57.406,31.718l0.025-0.037l8.824,0.113c0.961,0.012,1.842-0.52,2.279-1.377   c0.438-0.855,0.348-1.885-0.225-2.656l-5.279-7.07l2.834-8.355c0.617-1.82-1.379-3.816-3.199-3.201l-8.357,2.836l-0.045-0.035   L57.406,31.718z" fill="#F26606"/><path d="M55.469,19.531l9.711-9.709c-0.65-0.65-1.604-0.994-2.514-0.688l-8.357,2.836l-0.045-0.035L55.469,19.531z" fill="#ED9015"/></g></svg>