<?xml version="1.0" ?><!DOCTYPE svg  PUBLIC '-//W3C//DTD SVG 1.1//EN'  'http://www.w3.org/Graphics/SVG/1.1/DTD/svg11.dtd'><svg height="100%" style="fill-rule:evenodd;clip-rule:evenodd;stroke-linejoin:round;stroke-miterlimit:1.41421;" version="1.1" viewBox="0 0 101 126" width="100%" xml:space="preserve" xmlns="http://www.w3.org/2000/svg" xmlns:serif="http://www.serif.com/" xmlns:xlink="http://www.w3.org/1999/xlink"><g><path d="M84.281,90.283c-2.8,1.9 -5.8,1.7 -7.8,1.1c-4.8,-1.3 -9.5,-5.5 -12.5,-11.4c-0.6,-1.1 -1.5,-1.9 -2.6,-2.3l-0.4,-0.2c-6.8,-2.7 -14.5,-2.5 -21.2,0.4c-1,0.5 -1.9,1.3 -2.4,2.3c-3.1,6 -7.9,10.4 -12.8,11.7c-2,0.5 -5.1,0.8 -8,-1.2c-6.8,-4.5 -8,-17.2 -2.7,-27.7c3.1,-6.2 7.9,-10.6 12.9,-12c0.8,-0.2 1.8,-0.4 2.9,-0.4c1.6,0 3.4,0.4 5.2,1.5l0.8,0.4c9.5,3.7 20.1,3.9 29.8,0.6l0.8,-0.3l0.4,-0.3c2.7,-1.7 5.7,-1.5 7.7,-1c4.9,1.3 9.6,5.7 12.6,11.7c5.2,10.3 4,22.7 -2.7,27.1Z" style="fill:#34ff22;"/><path d="M73.394,57.783c-6.1,0 -11,4.9 -11,11c0,6.1 4.9,11 11,11c6.1,0 11,-4.9 11,-11c0,-6.1 -4.9,-11 -11,-11Zm0,14c-1.7,0 -3,-1.3 -3,-3c0,-1.7 1.3,-3 3,-3c1.7,0 3,1.3 3,3c0,1.7 -1.3,3 -3,3Z" style="fill-rule:nonzero;"/><path d="M94.194,59.583c-4.1,-8.1 -10.6,-13.9 -17.8,-15.8c-4.9,-1.3 -9.8,-0.6 -13.9,1.9c-2,0.7 -4.1,1.2 -6.2,1.5l0,-3.8c0,-1.5 0.3,-4.1 2,-4.1c6.4,0 10,-3.8 10,-10.5l0,-4l-8,0l0,4c0,2.2 0,2.5 -2,2.5c-6,0 -10,4.9 -10,12.1l0,4c-3.3,-0.3 -6.5,-1 -9.6,-2.1c-4.1,-2.6 -9.1,-3.3 -14.1,-2c-7.3,1.9 -13.8,7.8 -18,16.1c-7.2,14.4 -4.8,31.1 5.5,38c2.9,1.9 6.2,2.9 9.6,2.9c1.6,0 3.2,-0.2 4.8,-0.6c6.9,-1.8 13.2,-7.2 17.4,-14.8c4.3,-1.6 9.1,-1.7 13.5,-0.2c4.1,7.4 10.3,12.7 17.1,14.4c5,1.3 10.1,0.5 14.2,-2.2c10.2,-6.7 12.6,-23.1 5.5,-37.3Zm-9.9,30.7c-2.8,1.9 -5.8,1.7 -7.8,1.1c-4.8,-1.3 -9.5,-5.5 -12.5,-11.4c-0.6,-1.1 -1.5,-1.9 -2.6,-2.3l-0.4,-0.2c-6.8,-2.7 -14.5,-2.5 -21.2,0.4c-1,0.5 -1.9,1.3 -2.4,2.3c-3.1,6 -7.9,10.4 -12.8,11.7c-2,0.5 -5.1,0.8 -8,-1.2c-6.8,-4.5 -8,-17.2 -2.7,-27.7c3.1,-6.2 7.9,-10.6 12.9,-12c0.8,-0.2 1.8,-0.4 2.9,-0.4c1.6,0 3.4,0.4 5.2,1.5l0.8,0.4c9.5,3.7 20.1,3.9 29.8,0.6l0.8,-0.3l0.4,-0.3c2.7,-1.7 5.7,-1.5 7.7,-1c4.9,1.3 9.6,5.7 12.6,11.7c5.2,10.3 4,22.7 -2.7,27.1Z" style="fill-rule:nonzero;"/><path d="M73.381,71.783c-1.7,0 -3,-1.3 -3,-3c0,-1.7 1.3,-3 3,-3c1.7,0 3,1.3 3,3c0,1.7 -1.3,3 -3,3Z" style="fill:#8b19ff;"/><path d="M30.394,58.983l-8,0l0,6l-6,0l0,8l6,0l0,6l8,0l0,-6l6,0l0,-8l-6,0l0,-6Z" style="fill-rule:nonzero;"/><path d="M33.804,92.187l33.354,-0.095" style="fill:#020000;fill-opacity:0.202514;"/><path d="M70.381,92.092l18.195,0l3,-12.309c-5.886,4.778 -15.358,6.481 -27.196,6.154l6.001,6.155Z" style="fill:#020000;fill-opacity:0.202514;"/><path d="M64.38,81.955l-29.464,2.354" style="fill:#020000;fill-opacity:0.202514;"/><path d="M34.916,85.537c-6.542,2.916 -14.798,3.789 -24.34,3.127l0,3.589l23.228,-0.09l1.112,-6.626Z" style="fill:#020000;fill-opacity:0.202514;"/></g></svg>