<?xml version="1.0" ?><!DOCTYPE svg  PUBLIC '-//W3C//DTD SVG 1.1//EN'  'http://www.w3.org/Graphics/SVG/1.1/DTD/svg11.dtd'><svg enable-background="new 0 0 128 128" height="128px" version="1.1" viewBox="0 0 128 128" width="128px" xml:space="preserve" xmlns="http://www.w3.org/2000/svg" xmlns:xlink="http://www.w3.org/1999/xlink"><g id="Layer_1"><path d="   M113.72,49.36C115.2,53.98,116,58.89,116,64c0,16.15-7.98,30.44-20.21,39.14C87.95,108.72,78.36,112,68,112s-19.95-3.28-27.79-8.86   C27.98,94.44,20,80.15,20,64c0-5.25,0.84-10.3,2.4-15.03C28.71,29.82,46.74,16,68,16C89.41,16,107.54,30.01,113.72,49.36z" fill="#D1D3D4" stroke="#D1D3D4" stroke-linecap="round" stroke-linejoin="round" stroke-miterlimit="10" stroke-width="4"/><path d="M78.11,84l13.68,19.14C83.95,108.72,74.36,112,64,112s-19.95-3.28-27.79-8.86L49.89,84H78.11z" fill="#FFFFFF"/><path d="M41.17,56.37L49.89,84l-13.68,19.14C23.98,94.44,16,80.15,16,64c0-5.25,0.84-10.3,2.4-15.03L41.17,56.37z" fill="#FFFFFF"/><path d="M64,39v0.38L41.17,56.37l-22.77-7.4C24.71,29.82,42.74,16,64,16V39z" fill="#FFFFFF"/><path d="M109.72,49.36C111.2,53.98,112,58.89,112,64c0,16.15-7.98,30.44-20.21,39.14L78.11,84l8.72-27.43   L109.72,49.36z" fill="#FFFFFF"/><polygon fill="#231F20" points="86.83,56.57 78.11,84 49.89,84 41.17,56.37 64,39.38  "/><path d="M23.4,48.97C29.208,31.342,44.952,18.24,64,16.267V16c-21.26,0-39.29,13.82-45.6,32.97l22.77,7.4   l1.52-1.131L23.4,48.97z" fill="#D1D3D4"/><path d="M41.21,103.14L54.89,84h-5l-13.68,19.14C44.05,108.72,53.64,112,64,112c0.839,0,1.671-0.029,2.5-0.072   C57.1,111.446,48.415,108.268,41.21,103.14z" fill="#D1D3D4"/><path d="M21,64c0-4.708,0.68-9.253,1.945-13.553L18.4,48.97C16.84,53.7,16,58.75,16,64   c0,16.15,7.98,30.44,20.21,39.14l1.797-2.514C27.613,91.82,21,78.687,21,64z" fill="#D1D3D4"/><path d="M109.72,49.36l-22.89,7.21L64,39.38V39V16   C85.41,16,103.54,30.01,109.72,49.36z" fill="#FFFFFF" stroke="#FFFFFF" stroke-miterlimit="10"/><path d="M69,39.38V39V16.267C67.355,16.097,65.689,16,64,16v23v0.38l22.83,17.19l3.525-1.11L69,39.38z" fill="#D1D3D4"/><path d="M83.11,84l8.72-27.43l18.321-5.771c-0.138-0.482-0.279-0.963-0.431-1.439l-22.89,7.21L78.11,84l13.68,19.14   c1.108-0.788,2.167-1.637,3.203-2.514L83.11,84z" fill="#D1D3D4"/><path d="   M109.72,49.36C111.2,53.98,112,58.89,112,64c0,16.15-7.98,30.44-20.21,39.14C83.95,108.72,74.36,112,64,112s-19.95-3.28-27.79-8.86   C23.98,94.44,16,80.15,16,64c0-5.25,0.84-10.3,2.4-15.03C24.71,29.82,42.74,16,64,16C85.41,16,103.54,30.01,109.72,49.36z" fill="none" stroke="#231F20" stroke-linecap="round" stroke-linejoin="round" stroke-miterlimit="10" stroke-width="4"/><polygon fill="none" points="   49.89,84 41.17,56.37 64,39.38 86.83,56.57 78.11,84  " stroke="#231F20" stroke-linecap="round" stroke-linejoin="round" stroke-miterlimit="10" stroke-width="2"/><polyline fill="none" points="   64,39 64,16 64,8  " stroke="#231F20" stroke-linecap="round" stroke-linejoin="round" stroke-miterlimit="10" stroke-width="2"/><polyline fill="none" points="   86.83,56.57 109.72,49.36 117.36,46.95  " stroke="#231F20" stroke-linecap="round" stroke-linejoin="round" stroke-miterlimit="10" stroke-width="2"/><polyline fill="none" points="   41.17,56.37 18.4,48.97 10.79,46.5  " stroke="#231F20" stroke-linecap="round" stroke-linejoin="round" stroke-miterlimit="10" stroke-width="2"/><polyline fill="none" points="   49.89,84 36.21,103.14 31.55,109.65  " stroke="#231F20" stroke-linecap="round" stroke-linejoin="round" stroke-miterlimit="10" stroke-width="2"/><polyline fill="none" points="   78.11,84 91.79,103.14 96.45,109.65  " stroke="#231F20" stroke-linecap="round" stroke-linejoin="round" stroke-miterlimit="10" stroke-width="2"/><path d="M44.55,107.881l-3.726-11.12L28.77,96.589C33.177,101.352,38.539,105.213,44.55,107.881z" fill="#231F20"/><path d="M23.298,40.241l2.811,11.386L16.021,58.23C17.192,51.847,19.651,45.715,23.298,40.241z" fill="#231F20"/><path d="M54.601,17.003l9.333,7.101l10.065-6.636C67.676,16.008,61.072,15.829,54.601,17.003z" fill="#231F20"/><path d="M98.658,96.743l-11.724-0.29l-4.272,11.273C88.642,105.208,94.1,101.484,98.658,96.743z" fill="#231F20"/><path d="M105.73,40.985l-3.686,11.133l9.544,7.366C110.917,53.03,108.941,46.726,105.73,40.985z" fill="#231F20"/></g><g id="Layer_2"/></svg>